<?xml version="1.0" encoding="UTF-8" standalone="no"?>
<!-- Created with Inkscape (http://www.inkscape.org/) -->

<svg
   xmlns:dc="http://purl.org/dc/elements/1.1/"
   xmlns:cc="http://creativecommons.org/ns#"
   xmlns:rdf="http://www.w3.org/1999/02/22-rdf-syntax-ns#"
   xmlns:svg="http://www.w3.org/2000/svg"
   xmlns="http://www.w3.org/2000/svg"
   xmlns:sodipodi="http://sodipodi.sourceforge.net/DTD/sodipodi-0.dtd"
   xmlns:inkscape="http://www.inkscape.org/namespaces/inkscape"
   width="900.79999"
   height="789.87"
   viewBox="0 0 238.33666 208.98643"
   version="1.1"
   id="svg820"
   inkscape:version="0.92.1 r15371"
   sodipodi:docname="drugs.svg">
  <defs
     id="defs814" />
  <sodipodi:namedview
     id="base"
     pagecolor="#ffffff"
     bordercolor="#666666"
     borderopacity="1.0"
     inkscape:pageopacity="0.0"
     inkscape:pageshadow="2"
     inkscape:zoom="0.48261719"
     inkscape:cx="476.26378"
     inkscape:cy="144.30816"
     inkscape:document-units="px"
     inkscape:current-layer="layer1"
     showgrid="false"
     units="px"
     inkscape:window-width="1920"
     inkscape:window-height="1057"
     inkscape:window-x="-8"
     inkscape:window-y="-8"
     inkscape:window-maximized="1"
     fit-margin-top="0"
     fit-margin-left="0"
     fit-margin-right="0"
     fit-margin-bottom="0"
     inkscape:snap-global="false" />
  <metadata
     id="metadata817">
    <rdf:RDF>
      <cc:Work
         rdf:about="">
        <dc:format>image/svg+xml</dc:format>
        <dc:type
           rdf:resource="http://purl.org/dc/dcmitype/StillImage" />
        <dc:title></dc:title>
      </cc:Work>
    </rdf:RDF>
  </metadata>
  <g
     inkscape:label="Layer 1"
     inkscape:groupmode="layer"
     id="layer1"
     transform="translate(154.5762,-54.80155)">
    <path
       inkscape:connector-curvature="0"
       id="path4158"
       d="m 74.130357,254.15715 -219.076417,-3e-5 109.538277,-189.725752 z"
       inkscape:transform-center-y="-119.51226"
       inkscape:transform-center-x="-0.00020423408"
       style="opacity:1;fill:#ffffff;fill-opacity:1;stroke:#f0141e;stroke-width:19.04999924;stroke-linecap:butt;stroke-linejoin:round;stroke-miterlimit:4;stroke-dasharray:none;stroke-dashoffset:0;stroke-opacity:1"
       sodipodi:nodetypes="cccc" />
    <path
       id="path7098"
       style="fill:#ffffff;fill-opacity:1;fill-rule:nonzero;stroke:none;stroke-width:0.26741046"
       d="m -45.583792,146.94728 -41.946017,50.77161 -0.40405,22.99838 1.8593,1.14478 22.6117,-3.1212 42.921522,-50.68258"
       inkscape:connector-curvature="0"
       sodipodi:nodetypes="cccccc" />
    <path
       id="path7100"
       style="fill:#000000;fill-opacity:1;fill-rule:nonzero;stroke:none;stroke-width:0.26741046"
       d="m -52.822859,202.28358 -11.78882,13.93234 -21.12355,3.36563 -0.0993,-21.29147 c 2.0893,1.08753 2.14676,1.42397 8.79541,3.8055 5.70653,1.89595 7.1115,-0.53804 11.88396,-0.47544 5.22601,-0.9504 11.04756,-0.43857 12.33218,0.66343 z m 31.010233,-53.66499 6.985053,5.92797 6.9842024,-0.53776 -25.4574664,-21.55997 0.507822,6.87834 6.757192,5.7191 -6.19834,7.32249 -15.253896,-12.92155 -0.302957,5.51026 2.207204,1.98981 -42.703267,50.77163 -0.40405,22.99838 -12.862561,17.56487 15.204251,-15.33173 22.8866,-4.20956 15.577712,-18.3949 c -0.27693,-0.24022 -0.607793,-0.52763 -1.013202,-0.87553 -1.005751,-0.8669 -2.342764,-2.00745 -3.67474,-3.14314 -2.65728,-2.27697 -5.31051,-4.53634 -5.31051,-4.53634 l 1.30251,-1.53579 c 0.006,1.8e-4 7.614785,6.48176 9.998498,8.55313 l 3.577705,-4.22641 c -0.239062,-0.22462 -0.511812,-0.47197 -0.842885,-0.76453 -1.016423,-0.89849 -2.383693,-2.05797 -3.748012,-3.18591 -2.742042,-2.27191 -5.480856,-4.4604 -5.485946,-4.46575 l 1.261629,-1.57186 c 0.0139,0.0156 7.385351,5.90496 10.120951,8.44534 l 3.322849,-3.92236 c -0.340665,-0.25803 -0.739642,-0.57786 -1.218047,-0.97683 -1.043439,-0.85653 -2.357498,-1.98471 -3.649621,-3.12123 -2.593619,-2.26335 -5.10272,-4.52296 -5.10272,-4.53019 l 1.347456,-1.49378 c 0.004,0.005 2.350276,2.11229 4.840392,4.29328 1.967071,1.74646 4.212784,3.62983 5.085076,4.29302 l 3.407357,-4.02667 c -1.04986,-0.88994 -2.813957,-2.45991 -4.730748,-4.13335 -2.606182,-2.30133 -5.170664,-4.57327 -5.170664,-4.57327 l 1.337053,-1.50926 c 0.01,0.0105 7.524931,6.66947 9.871186,8.67827 l 3.854416,-4.5543 c -0.04501,-0.045 -0.06912,-0.0679 -0.130469,-0.12326 -0.27279,-0.24039 -0.678979,-0.58188 -1.176388,-0.99233 -0.981956,-0.81156 -2.308557,-1.86973 -3.631977,-2.92281 -2.64467,-2.11012 -5.290711,-4.16999 -5.295792,-4.17507 l 1.242953,-1.58788 c 0.03131,0.0262 8.302301,6.47107 10.297439,8.26059 l 6.658011,-7.86345 1.658714,1.39431 6.241359,-0.4907 -15.368612,-13.0154 6.19724,-7.32785"
       inkscape:connector-curvature="0"
       sodipodi:nodetypes="ccccccccccccccccccccccccccccccccccccccccccccccccccccccccccc" />
    <path
       inkscape:connector-curvature="0"
       d="M 23.817409,229.43452 3.9788129,228.20475 c -3.24728996,-0.20074 -6.03124,1.9719 -6.20969,4.8461 -0.17626,2.87319 2.31659004,5.37532 5.56185,5.57605 l 19.8385961,1.22978 c 3.24526,0.20174 6.02925,-1.97291 6.20766,-4.8461 0.17856,-2.8742 -2.31659,-5.37532 -5.55982,-5.57606 z m -10.588426,8.73109 -9.8331001,-0.60931 c -2.65320996,-0.16423 -4.69912,-2.15641 -4.55615,-4.43955 0.14101,-2.28314 2.41594,-4.00766 5.07114,-3.84342 l 9.8331501,0.61032 z"
       id="path2"
       style="fill:#000000;stroke:none;stroke-width:1.01382804" />
    <polygon
       transform="matrix(1.0138281,0,0,1.0138281,-27.515757,177.01251)"
       points="30.374,10.954 32.098,10.954 32.098,4.845 33.13,4.845 33.13,10.954 34.508,10.954 34.508,3.465 33.301,3.465 33.301,2 12.624,2 12.624,3.465 11.417,3.465 11.417,10.954 12.793,10.954 12.793,4.845 13.827,4.845 13.827,10.954 15.551,10.954 15.551,4.845 16.584,4.845 16.584,10.954 18.309,10.954 18.309,4.845 19.342,4.845 19.342,10.954 21.067,10.954 21.067,4.845 22.1,4.845 22.1,10.954 23.825,10.954 23.825,4.845 24.858,4.845 24.858,10.954 26.583,10.954 26.583,4.845 27.616,4.845 27.616,10.954 29.34,10.954 29.34,4.845 30.374,4.845 "
       id="polygon4"
       style="fill:#000000;stroke:none" />
    <path
       inkscape:connector-curvature="0"
       d="m 3.5631429,227.32678 c 0.15404,0 0.31114,0.005 0.46939,0.0153 l 1.41937,0.0882 5.6095201,-6.19246 V 198.29285 L 6.6401029,189.34481 H -15.111557 l -4.42131,8.94804 v 32.63311 h 0.0192 c -0.002,0.0184 -0.008,0.0333 -0.008,0.0507 v 1.82793 c 0,0.95097 0.76647,1.72959 1.70323,1.72959 h 14.8546299 c -0.11036,-0.49678 -0.16209,-1.00977 -0.13182,-1.53595 0.19657,-3.18038 3.12161004,-5.67136 6.65782,-5.67136 z M -14.214337,202.37039 H 5.7428929 v 22.04974 H -14.214337 Z"
       id="path6"
       style="fill:#000000;stroke:none;stroke-width:1.01382804" />
    <path
       inkscape:connector-curvature="0"
       d="m 8.0321229,227.783 5.2516201,-5.45135 6.61927,4.05227 -1.78635,1.84314 1.79547,0.0801 7.425276,-8.19782 c 2.18178,-2.40987 2.22029,-5.94205 0.0874,-7.87643 -2.13312,-1.93236 -5.644996,-1.54507 -7.827776,0.86581 L 6.3645529,227.70999 Z"
       id="path8"
       style="fill:#000000;stroke:none;stroke-width:1.01382804" />
  </g>
</svg>
